<svg width="25" height="20" viewBox="0 0 25 20" fill="none" xmlns="http://www.w3.org/2000/svg">
<path d="M17.4632 12.4712L16.7762 13.1487L15.8911 13.6824C14.3319 14.6224 12.344 15.1956 10.157 15.1956C4.84129 15.1956 1 11.9115 1 8.36337C1 4.81525 4.84129 1.53119 10.157 1.53119C15.4727 1.53119 19.314 4.81525 19.314 8.36337C19.314 9.87228 18.6527 11.298 17.4632 12.4712ZM17.4074 14.5387V14.1832H18.1654H18.9613C19.0839 14.1832 19.1591 14.2219 19.1808 14.2387L23.8501 17.8392L22.6625 18.7549L22.6584 18.7581C22.5677 18.8289 22.3296 18.8329 22.2284 18.7549L17.4074 15.0374V14.5387ZM2.90654 8.36337C2.90654 11.8082 6.41009 14.1832 10.157 14.1832C13.9099 14.1832 17.4074 11.8035 17.4074 8.36337C17.4074 4.91858 13.9039 2.54357 10.157 2.54357C6.4041 2.54357 2.90654 4.9232 2.90654 8.36337Z" stroke="white" stroke-width="2"/>
</svg>
