<svg width="25" height="18" viewBox="0 0 25 18" fill="none" xmlns="http://www.w3.org/2000/svg">
<path d="M5.25 5C5.25 5.82662 4.57662 6.5 3.75 6.5C2.92338 6.5 2.25 5.82662 2.25 5C2.25 4.17338 2.92338 3.5 3.75 3.5C4.57662 3.5 5.25 4.17338 5.25 5ZM22.75 5C22.75 5.82662 22.0766 6.5 21.25 6.5C20.4234 6.5 19.75 5.82662 19.75 5C19.75 4.17338 20.4234 3.5 21.25 3.5C22.0766 3.5 22.75 4.17338 22.75 5ZM21.9907 12.75C21.681 11.5952 21.0734 10.5681 20.2543 9.75H22.5C23.3266 9.75 24 10.4234 24 11.25V12.5C24 12.6391 23.8891 12.75 23.75 12.75H21.9907ZM15.875 4.375C15.875 6.24068 14.3657 7.75 12.5 7.75C10.6343 7.75 9.125 6.24068 9.125 4.375C9.125 2.50932 10.6343 1 12.5 1C14.3657 1 15.875 2.50932 15.875 4.375ZM12.5 11.625C13.5413 11.625 14.5169 11.3899 15.3954 11H15.5C17.4321 11 19 12.5679 19 14.5V15.625C19 16.1079 18.6079 16.5 18.125 16.5H6.875C6.39213 16.5 6 16.1079 6 15.625V14.5C6 12.5679 7.56791 11 9.5 11H9.60534C10.4851 11.3893 11.4574 11.625 12.5 11.625ZM4.74555 9.75C3.92612 10.5683 3.31803 11.5954 3.00675 12.75H1.25C1.11088 12.75 1 12.6391 1 12.5V11.25C1 10.4234 1.67338 9.75 2.5 9.75H4.74555Z" stroke="#4B4848" stroke-width="2"/>
</svg>
