<svg width="25" height="25" viewBox="0 0 25 25" fill="none" xmlns="http://www.w3.org/2000/svg">
<path d="M14.3096 17.9037L14.312 17.9054C15.02 18.4168 16.0071 18.2618 16.5232 17.5605L16.5267 17.5557L17.9036 15.6612L17.9054 15.6587C18.409 14.9614 18.2783 13.9673 17.555 13.4435C17.5544 13.4431 17.5538 13.4427 17.5533 13.4423L14.8672 11.488V5.27344C14.8672 4.39889 14.1558 3.6875 13.2812 3.6875H10.9375C10.0629 3.6875 9.35156 4.39889 9.35156 5.27344V13.4912C9.35156 13.994 9.58985 14.4674 9.99497 14.7679L9.99494 14.768L10.0029 14.7738L14.3096 17.9037ZM1 12.1094C1 5.97221 5.97221 1 12.1094 1C18.2465 1 23.2188 5.97221 23.2188 12.1094C23.2188 18.2465 18.2465 23.2188 12.1094 23.2188C5.97221 23.2188 1 18.2465 1 12.1094Z" stroke="#4B4848" stroke-width="2"/>
</svg>
