<svg width="22" height="19" viewBox="0 0 22 19" fill="none" xmlns="http://www.w3.org/2000/svg">
<path d="M21.3217 1.56554L21.3216 1.56623L18.0216 17.129C17.911 17.6144 17.7437 17.7695 17.6443 17.8148C17.55 17.8579 17.3452 17.8797 16.9592 17.6691L11.956 13.9823L11.6166 13.7322L11.3128 14.0244L8.886 16.3584L8.88594 16.3583L8.87905 16.3652C8.84035 16.4039 8.80638 16.4376 8.77564 16.4672L9.06778 12.3259L18.2372 4.04023C18.2377 4.0398 18.2382 4.03936 18.2387 4.03893C18.3725 3.91929 18.5433 3.72041 18.5529 3.45038C18.5654 3.10314 18.319 2.89851 18.1127 2.82496C17.9229 2.75732 17.7195 2.76827 17.5478 2.8073C17.3687 2.84802 17.1825 2.92825 17.0031 3.04692L5.68014 10.1765L0.93957 8.69278L0.939233 8.69267C0.711656 8.62162 0.585286 8.54217 0.52661 8.48697C0.519395 8.48018 0.513751 8.47436 0.50937 8.46951C0.521796 8.44932 0.547724 8.41524 0.600467 8.36872C0.709551 8.27252 0.898935 8.1556 1.19583 8.03936C1.1962 8.03922 1.19658 8.03907 1.19696 8.03892L20.5947 0.56585C20.5953 0.565611 20.596 0.565372 20.5966 0.565135C20.9274 0.441633 21.1235 0.514605 21.2138 0.602094C21.3115 0.696692 21.45 0.964772 21.3217 1.56554ZM0.495354 8.45069C0.495453 8.45069 0.495992 8.45158 0.496674 8.45332C0.495595 8.45155 0.495254 8.45068 0.495354 8.45069Z" stroke="#423E3E"/>
</svg>
