<svg width="26" height="28" viewBox="0 0 26 28" fill="none" xmlns="http://www.w3.org/2000/svg">
<path d="M18.9731 18.3068L18.9738 18.3059C19.0082 18.2598 19.0426 18.2434 19.0614 18.2383C19.0783 18.2337 19.0965 18.2341 19.119 18.2444C19.1191 18.2445 19.1192 18.2446 19.1194 18.2446L24.5925 20.8129C24.5929 20.8131 24.5933 20.8133 24.5938 20.8135C24.6237 20.8281 24.668 20.8639 24.701 20.9349C24.7346 21.0074 24.7465 21.0977 24.7288 21.1858C24.7287 21.1864 24.7286 21.187 24.7284 21.1877L23.5552 26.7541C23.5379 26.8363 23.4989 26.8928 23.4637 26.9234L24.1202 27.6778L23.4637 26.9234C23.4304 26.9524 23.4037 26.957 23.3894 26.957H23.3887C11.4927 26.957 1.68481 16.3746 1.68481 3.09821V3.09801C1.6848 3.0108 1.71234 2.93592 1.74912 2.88528C1.78491 2.836 1.82107 2.81939 1.84005 2.81459L6.92523 1.52969C6.92549 1.52963 6.92575 1.52957 6.92602 1.5295C6.94488 1.52498 6.967 1.52584 6.9948 1.54123C7.02554 1.55824 7.06957 1.59808 7.09955 1.67214L9.44675 7.66875C9.47365 7.7375 9.48051 7.81908 9.46303 7.89677C9.4456 7.97418 9.40886 8.02783 9.37533 8.05768L9.37299 8.05977L6.40779 10.7171L5.87234 11.1969L6.15671 11.8573C8.03827 16.2267 11.2591 19.7642 15.2865 21.8433L16.0391 22.2318L16.5462 21.5535L18.9731 18.3068Z" stroke="white" stroke-width="2"/>
</svg>
