<svg width="26" height="28" viewBox="0 0 26 28" fill="none" xmlns="http://www.w3.org/2000/svg">
<path d="M18.183 17.945L17.4809 18.9281L16.5849 19.695C15.0252 21.0299 13.0795 21.8117 10.9716 21.8117C5.98471 21.8117 1.79346 17.3593 1.79346 11.6694C1.79346 5.97953 5.98471 1.5271 10.9716 1.5271C15.9585 1.5271 20.1498 5.97953 20.1498 11.6694C20.1498 14.0489 19.4121 16.2241 18.183 17.945ZM18.2351 19.5262H18.9967H19.7943C19.8154 19.5262 19.8495 19.5336 19.8879 19.5756L24.763 24.9125C24.7634 24.9129 24.7637 24.9134 24.7641 24.9138C24.8735 25.0364 24.8728 25.2673 24.7617 25.3889L23.3768 26.9049L23.3733 26.9088C23.3512 26.9332 23.3326 26.9443 23.3208 26.9495C23.3085 26.955 23.2975 26.957 23.2876 26.957C23.2728 26.957 23.2383 26.9527 23.1947 26.9049L18.316 21.5641C18.2743 21.5185 18.2351 21.4367 18.2351 21.3279V20.4547V19.5262ZM3.70814 11.6694C3.70814 15.9278 6.87697 19.5262 10.9716 19.5262C15.0721 19.5262 18.2351 15.9214 18.2351 11.6694C18.2351 7.41103 15.0663 3.8126 10.9716 3.8126C6.87111 3.8126 3.70814 7.41745 3.70814 11.6694Z" stroke="white" stroke-width="2"/>
</svg>
