<svg width="23" height="29" viewBox="0 0 23 29" fill="none" xmlns="http://www.w3.org/2000/svg">
<path d="M17.2236 7.48174C17.2236 10.7988 14.7733 13.3392 11.9248 13.3392C9.07627 13.3392 6.62598 10.7988 6.62598 7.48174C6.62598 4.16465 9.07627 1.62427 11.9248 1.62427C14.7733 1.62427 17.2236 4.16465 17.2236 7.48174ZM11.9248 17.9108C13.2833 17.9108 14.5746 17.6 15.7413 17.0536H16.334C19.3548 17.0536 21.9478 19.7493 21.9478 23.2539V25.4826C21.9478 26.4317 21.2592 27.0542 20.5857 27.0542H3.26392C2.59044 27.0542 1.90186 26.4317 1.90186 25.4826V23.2539C1.90186 19.7493 4.49486 17.0536 7.51562 17.0536H8.10903C9.27809 17.5994 10.565 17.9108 11.9248 17.9108Z" stroke="#F2EEEE" stroke-width="2"/>
</svg>
