<svg width="25" height="25" viewBox="0 0 25 25" fill="none" xmlns="http://www.w3.org/2000/svg">
<path d="M4.35435 3.35397L3.56696 5.41036L5.63352 4.65005C6.5395 4.31673 7.5143 4.12498 8.61074 4.12498C10.0813 4.12498 11.311 4.50125 12.5816 4.92321C12.6642 4.95065 12.7474 4.97845 12.8312 5.00644C13.997 5.39606 15.2756 5.82337 16.678 5.82337C18.8851 5.82337 21.1084 4.96509 22.8097 4.17496L22.8097 4.17495C23.1832 4.00144 23.6094 4.27389 23.6094 4.6848V16.5549C23.6094 16.7421 23.5175 16.9147 23.3681 17.0171L23.3681 17.0171C21.7348 18.1366 20.0489 18.8369 17.9518 18.8369C16.4812 18.8369 15.2515 18.4607 13.9809 18.0387C13.8983 18.0113 13.8151 17.9835 13.7314 17.9555C12.5655 17.5659 11.2869 17.1386 9.88452 17.1386C7.25304 17.1386 5.39793 17.6625 3.90486 18.2988L3.29688 18.5578V19.2187V23.8281C3.29688 23.923 3.21993 24 3.125 24H2.34375C2.24882 24 2.17188 23.923 2.17188 23.8281V4.97777V4.45616L1.74412 4.15768C1.29206 3.84224 1 3.32223 1 2.73436C1 1.75224 1.81578 0.961125 2.80787 1.0015L2.80789 1.0015C3.68594 1.03722 4.41063 1.74642 4.46527 2.62326L4.46535 2.62463C4.48117 2.8729 4.44331 3.12165 4.35435 3.35397ZM5.46532 2.5959C5.46473 2.58429 5.46407 2.57268 5.46333 2.56107L5.46532 2.5959Z" stroke="#4B4848" stroke-width="2"/>
</svg>
